<mxfile host="app.diagrams.net" agent="Mozilla/5.0 (Macintosh; Intel Mac OS X 10_15_7) AppleWebKit/605.1.15 (KHTML, like Gecko) Version/17.6 Safari/605.1.15" version="24.7.17">
  <diagram id="C5RBs43oDa-KdzZeNtuy" name="Page-1">
    <mxGraphModel dx="1242" dy="827" grid="1" gridSize="10" guides="1" tooltips="1" connect="1" arrows="1" fold="1" page="1" pageScale="1" pageWidth="827" pageHeight="1169" background="#333333" math="0" shadow="0">
      <root>
        <mxCell id="WIyWlLk6GJQsqaUBKTNV-0" />
        <mxCell id="WIyWlLk6GJQsqaUBKTNV-1" parent="WIyWlLk6GJQsqaUBKTNV-0" />
        <mxCell id="WIyWlLk6GJQsqaUBKTNV-2" value="" style="rounded=0;html=1;jettySize=auto;orthogonalLoop=1;fontSize=11;endArrow=block;endFill=0;endSize=8;strokeWidth=1;shadow=0;labelBackgroundColor=none;edgeStyle=orthogonalEdgeStyle;fontColor=default;" parent="WIyWlLk6GJQsqaUBKTNV-1" edge="1">
          <mxGeometry relative="1" as="geometry">
            <mxPoint x="220" y="170" as="sourcePoint" />
            <mxPoint x="220" y="170" as="targetPoint" />
          </mxGeometry>
        </mxCell>
        <mxCell id="A0f_4Amc53qVXCeso7hz-2" value="Start" style="strokeWidth=2;html=1;shape=mxgraph.flowchart.start_1;whiteSpace=wrap;labelBackgroundColor=none;" parent="WIyWlLk6GJQsqaUBKTNV-1" vertex="1">
          <mxGeometry x="75" y="20" width="100" height="60" as="geometry" />
        </mxCell>
        <mxCell id="gL1o9Zj5MICsFiWbh3Co-43" value="read data from hockey_stats.db using &amp;nbsp;pd.read_sql()" style="shape=cylinder3;whiteSpace=wrap;html=1;boundedLbl=1;backgroundOutline=1;size=15;" vertex="1" parent="WIyWlLk6GJQsqaUBKTNV-1">
          <mxGeometry x="60" y="120" width="130" height="125" as="geometry" />
        </mxCell>
        <mxCell id="gL1o9Zj5MICsFiWbh3Co-48" value="" style="endArrow=classic;html=1;rounded=0;strokeColor=#FFFFFF;strokeWidth=3;" edge="1" parent="WIyWlLk6GJQsqaUBKTNV-1">
          <mxGeometry width="50" height="50" relative="1" as="geometry">
            <mxPoint x="120" y="80" as="sourcePoint" />
            <mxPoint x="124.5" y="110" as="targetPoint" />
            <Array as="points">
              <mxPoint x="120" y="90" />
              <mxPoint x="120" y="100" />
            </Array>
          </mxGeometry>
        </mxCell>
        <mxCell id="gL1o9Zj5MICsFiWbh3Co-54" value="" style="endArrow=classic;html=1;rounded=0;strokeColor=#FFFFFF;strokeWidth=3;" edge="1" parent="WIyWlLk6GJQsqaUBKTNV-1">
          <mxGeometry width="50" height="50" relative="1" as="geometry">
            <mxPoint x="120" y="255" as="sourcePoint" />
            <mxPoint x="120" y="290" as="targetPoint" />
            <Array as="points">
              <mxPoint x="120" y="245" />
              <mxPoint x="120" y="270" />
            </Array>
          </mxGeometry>
        </mxCell>
        <mxCell id="gL1o9Zj5MICsFiWbh3Co-56" value="&lt;font style=&quot;font-size: 13px;&quot;&gt;organize_by_season()&lt;/font&gt;" style="swimlane;fontStyle=0;childLayout=stackLayout;horizontal=1;startSize=26;horizontalStack=0;resizeParent=1;resizeParentMax=0;resizeLast=0;collapsible=1;marginBottom=0;html=1;" vertex="1" parent="WIyWlLk6GJQsqaUBKTNV-1">
          <mxGeometry x="40" y="300" width="250" height="420" as="geometry" />
        </mxCell>
        <mxCell id="gL1o9Zj5MICsFiWbh3Co-57" value="1.Filter game data by season.&amp;nbsp;&lt;code style=&quot;caret-color: rgb(0, 0, 0);&quot;&gt;df[&quot;game&quot;].query(f&quot;season == {season}&quot;)&lt;/code&gt;" style="text;strokeColor=#432D57;fillColor=#76608a;align=left;verticalAlign=middle;spacingLeft=4;spacingRight=4;overflow=hidden;rotatable=0;points=[[0,0.5],[1,0.5]];portConstraint=eastwest;whiteSpace=wrap;html=1;fontColor=#ffffff;perimeterSpacing=3;strokeWidth=7;" vertex="1" parent="gL1o9Zj5MICsFiWbh3Co-56">
          <mxGeometry y="26" width="250" height="54" as="geometry" />
        </mxCell>
        <mxCell id="gL1o9Zj5MICsFiWbh3Co-58" value="&lt;font color=&quot;#ffffff&quot;&gt;2. Merge data from game_skater_stats, game_plays, &amp;amp; game_shifts with game on game_id&amp;nbsp;&lt;/font&gt;" style="text;strokeColor=#432D57;fillColor=#76608a;align=left;verticalAlign=middle;spacingLeft=4;spacingRight=4;overflow=hidden;rotatable=0;points=[[0,0.5],[1,0.5]];portConstraint=eastwest;whiteSpace=wrap;html=1;fontColor=#ffffff;perimeterSpacing=3;strokeWidth=7;" vertex="1" parent="gL1o9Zj5MICsFiWbh3Co-56">
          <mxGeometry y="80" width="250" height="60" as="geometry" />
        </mxCell>
        <mxCell id="gL1o9Zj5MICsFiWbh3Co-61" value="3.&lt;font face=&quot;Helvetica&quot;&gt; Filter specific events&amp;nbsp;&lt;span style=&quot;caret-color: rgb(0, 0, 0);&quot;&gt;shot, blocked shot, missed shot, and goal in game_plays. Standardize period time to seconds. (There are 3600 seconds in regulation play.)&lt;/span&gt;&lt;/font&gt;" style="text;strokeColor=#432D57;fillColor=#76608a;align=left;verticalAlign=top;spacingLeft=4;spacingRight=4;overflow=hidden;rotatable=0;points=[[0,0.5],[1,0.5]];portConstraint=eastwest;whiteSpace=wrap;html=1;fontColor=#ffffff;perimeterSpacing=3;strokeWidth=7;" vertex="1" parent="gL1o9Zj5MICsFiWbh3Co-56">
          <mxGeometry y="140" width="250" height="70" as="geometry" />
        </mxCell>
        <mxCell id="gL1o9Zj5MICsFiWbh3Co-62" value="4. Merge game_skater_stats with game_shifts ensuring only relevant shifts per game are considered." style="text;strokeColor=#432D57;fillColor=#76608a;align=left;verticalAlign=middle;spacingLeft=4;spacingRight=4;overflow=hidden;rotatable=0;points=[[0,0.5],[1,0.5]];portConstraint=eastwest;whiteSpace=wrap;html=1;fontColor=#ffffff;perimeterSpacing=3;strokeWidth=7;" vertex="1" parent="gL1o9Zj5MICsFiWbh3Co-56">
          <mxGeometry y="210" width="250" height="70" as="geometry" />
        </mxCell>
        <mxCell id="gL1o9Zj5MICsFiWbh3Co-63" value="5. Sort game_skater_stats by game_id and player_id keeping columns player_id, game_id, and team_id for corsi_stats." style="text;strokeColor=#432D57;fillColor=#76608a;align=left;verticalAlign=middle;spacingLeft=4;spacingRight=4;overflow=hidden;rotatable=0;points=[[0,0.5],[1,0.5]];portConstraint=eastwest;whiteSpace=wrap;html=1;fontColor=#ffffff;perimeterSpacing=3;strokeWidth=7;" vertex="1" parent="gL1o9Zj5MICsFiWbh3Co-56">
          <mxGeometry y="280" width="250" height="70" as="geometry" />
        </mxCell>
        <mxCell id="gL1o9Zj5MICsFiWbh3Co-70" value="6. Call create_corsi_stats() function to calculate corsi statistics." style="text;strokeColor=#432D57;fillColor=#76608a;align=left;verticalAlign=middle;spacingLeft=4;spacingRight=4;overflow=hidden;rotatable=0;points=[[0,0.5],[1,0.5]];portConstraint=eastwest;whiteSpace=wrap;html=1;fontColor=#ffffff;perimeterSpacing=3;strokeWidth=7;" vertex="1" parent="gL1o9Zj5MICsFiWbh3Co-56">
          <mxGeometry y="350" width="250" height="70" as="geometry" />
        </mxCell>
      </root>
    </mxGraphModel>
  </diagram>
</mxfile>
